<mxfile host="app.diagrams.net" modified="2022-10-02T16:04:09.181Z" agent="5.0 (Windows NT 10.0; Win64; x64) AppleWebKit/537.36 (KHTML, like Gecko) Chrome/105.0.0.0 Safari/537.36 Edg/105.0.1343.53" etag="WWvrNbgttXr4VjjL4Nor" version="20.4.0" type="github" pages="3">
  <diagram id="R2lEEEUBdFMjLlhIrx00" name="Selection">
    <mxGraphModel dx="992" dy="792" grid="1" gridSize="10" guides="1" tooltips="1" connect="1" arrows="1" fold="1" page="1" pageScale="1" pageWidth="850" pageHeight="1100" math="0" shadow="0" extFonts="Permanent Marker^https://fonts.googleapis.com/css?family=Permanent+Marker">
      <root>
        <mxCell id="0" />
        <mxCell id="1" parent="0" />
        <mxCell id="eNqNxu4gamPWBtJRf4EA-71" value="Selection" style="whiteSpace=wrap;html=1;align=center;rounded=1;sketch=0;fontSize=11;fillColor=#ffe6cc;strokeColor=#d79b00;" parent="1" vertex="1">
          <mxGeometry x="300" y="440" width="200" height="130" as="geometry" />
        </mxCell>
        <mxCell id="QEqoIqBwXi3VeUuBfhwj-2" value="Number of world cups" style="whiteSpace=wrap;html=1;align=center;rounded=1;sketch=0;fontSize=11;fillColor=#dae8fc;strokeColor=#6c8ebf;" vertex="1" parent="1">
          <mxGeometry x="50" y="250" width="120" height="90" as="geometry" />
        </mxCell>
        <mxCell id="QEqoIqBwXi3VeUuBfhwj-3" value="Number of regional cups" style="whiteSpace=wrap;html=1;align=center;rounded=1;sketch=0;fontSize=11;fillColor=#dae8fc;strokeColor=#6c8ebf;" vertex="1" parent="1">
          <mxGeometry x="50" y="440" width="120" height="90" as="geometry" />
        </mxCell>
        <mxCell id="QEqoIqBwXi3VeUuBfhwj-4" value="Coach" style="whiteSpace=wrap;html=1;align=center;rounded=1;sketch=0;fontSize=11;fillColor=#dae8fc;strokeColor=#6c8ebf;" vertex="1" parent="1">
          <mxGeometry x="50" y="620" width="120" height="90" as="geometry" />
        </mxCell>
        <mxCell id="QEqoIqBwXi3VeUuBfhwj-5" value="Name" style="whiteSpace=wrap;html=1;align=center;rounded=1;sketch=0;fontSize=11;fillColor=#dae8fc;strokeColor=#6c8ebf;" vertex="1" parent="1">
          <mxGeometry x="660" y="250" width="120" height="90" as="geometry" />
        </mxCell>
        <mxCell id="QEqoIqBwXi3VeUuBfhwj-6" value="ID" style="whiteSpace=wrap;html=1;align=center;rounded=1;sketch=0;fontSize=11;fillColor=#dae8fc;strokeColor=#6c8ebf;" vertex="1" parent="1">
          <mxGeometry x="660" y="460" width="120" height="90" as="geometry" />
        </mxCell>
        <mxCell id="QEqoIqBwXi3VeUuBfhwj-7" value="Continent" style="whiteSpace=wrap;html=1;align=center;rounded=1;sketch=0;fontSize=11;fillColor=#dae8fc;strokeColor=#6c8ebf;" vertex="1" parent="1">
          <mxGeometry x="660" y="620" width="120" height="90" as="geometry" />
        </mxCell>
        <mxCell id="QEqoIqBwXi3VeUuBfhwj-8" value="Player" style="shape=ext;margin=3;double=1;whiteSpace=wrap;html=1;align=center;fillColor=#dae8fc;strokeColor=#6c8ebf;" vertex="1" parent="1">
          <mxGeometry x="332.5" y="200" width="135" height="80" as="geometry" />
        </mxCell>
        <mxCell id="QEqoIqBwXi3VeUuBfhwj-9" value="Belongs" style="shape=rhombus;perimeter=rhombusPerimeter;whiteSpace=wrap;html=1;align=center;fillColor=#d5e8d4;strokeColor=#82b366;" vertex="1" parent="1">
          <mxGeometry x="350" y="330" width="100" height="50" as="geometry" />
        </mxCell>
        <mxCell id="QEqoIqBwXi3VeUuBfhwj-10" value="trains" style="shape=rhombus;perimeter=rhombusPerimeter;whiteSpace=wrap;html=1;align=center;fillColor=#d5e8d4;strokeColor=#82b366;" vertex="1" parent="1">
          <mxGeometry x="230" y="600" width="80" height="40" as="geometry" />
        </mxCell>
        <mxCell id="QEqoIqBwXi3VeUuBfhwj-11" value="Belongs" style="shape=rhombus;perimeter=rhombusPerimeter;whiteSpace=wrap;html=1;align=center;fillColor=#d5e8d4;strokeColor=#82b366;" vertex="1" parent="1">
          <mxGeometry x="490" y="590" width="95" height="50" as="geometry" />
        </mxCell>
        <mxCell id="QEqoIqBwXi3VeUuBfhwj-14" value="" style="edgeStyle=entityRelationEdgeStyle;fontSize=12;html=1;endArrow=ERmandOne;rounded=0;" edge="1" parent="1" source="QEqoIqBwXi3VeUuBfhwj-10">
          <mxGeometry width="100" height="100" relative="1" as="geometry">
            <mxPoint x="220" y="600" as="sourcePoint" />
            <mxPoint x="370" y="570" as="targetPoint" />
          </mxGeometry>
        </mxCell>
        <mxCell id="QEqoIqBwXi3VeUuBfhwj-15" value="" style="edgeStyle=entityRelationEdgeStyle;fontSize=12;html=1;endArrow=ERmandOne;rounded=0;entryX=1;entryY=0.5;entryDx=0;entryDy=0;exitX=0;exitY=0.5;exitDx=0;exitDy=0;" edge="1" parent="1" source="QEqoIqBwXi3VeUuBfhwj-10" target="QEqoIqBwXi3VeUuBfhwj-4">
          <mxGeometry width="100" height="100" relative="1" as="geometry">
            <mxPoint x="260" y="740" as="sourcePoint" />
            <mxPoint x="300" y="585" as="targetPoint" />
          </mxGeometry>
        </mxCell>
        <mxCell id="QEqoIqBwXi3VeUuBfhwj-18" value="" style="edgeStyle=entityRelationEdgeStyle;fontSize=12;html=1;endArrow=ERmandOne;rounded=0;exitX=1;exitY=0.5;exitDx=0;exitDy=0;" edge="1" parent="1" source="QEqoIqBwXi3VeUuBfhwj-11" target="QEqoIqBwXi3VeUuBfhwj-7">
          <mxGeometry width="100" height="100" relative="1" as="geometry">
            <mxPoint x="590" y="710" as="sourcePoint" />
            <mxPoint x="690" y="610" as="targetPoint" />
          </mxGeometry>
        </mxCell>
        <mxCell id="QEqoIqBwXi3VeUuBfhwj-19" value="" style="edgeStyle=entityRelationEdgeStyle;fontSize=12;html=1;endArrow=ERmandOne;rounded=0;entryX=0.617;entryY=1.011;entryDx=0;entryDy=0;entryPerimeter=0;exitX=0;exitY=0.5;exitDx=0;exitDy=0;" edge="1" parent="1" source="QEqoIqBwXi3VeUuBfhwj-11" target="eNqNxu4gamPWBtJRf4EA-71">
          <mxGeometry width="100" height="100" relative="1" as="geometry">
            <mxPoint x="590" y="710" as="sourcePoint" />
            <mxPoint x="690" y="610" as="targetPoint" />
          </mxGeometry>
        </mxCell>
        <mxCell id="QEqoIqBwXi3VeUuBfhwj-21" value="" style="edgeStyle=entityRelationEdgeStyle;fontSize=12;html=1;endArrow=ERmandOne;rounded=0;exitX=0.5;exitY=1;exitDx=0;exitDy=0;entryX=0.5;entryY=0;entryDx=0;entryDy=0;" edge="1" parent="1" source="QEqoIqBwXi3VeUuBfhwj-9" target="eNqNxu4gamPWBtJRf4EA-71">
          <mxGeometry width="100" height="100" relative="1" as="geometry">
            <mxPoint x="480" y="350" as="sourcePoint" />
            <mxPoint x="580" y="250" as="targetPoint" />
          </mxGeometry>
        </mxCell>
        <mxCell id="QEqoIqBwXi3VeUuBfhwj-22" value="" style="edgeStyle=entityRelationEdgeStyle;fontSize=12;html=1;endArrow=ERoneToMany;rounded=0;entryX=0.5;entryY=1;entryDx=0;entryDy=0;" edge="1" parent="1" target="QEqoIqBwXi3VeUuBfhwj-8">
          <mxGeometry width="100" height="100" relative="1" as="geometry">
            <mxPoint x="400" y="329" as="sourcePoint" />
            <mxPoint x="580" y="250" as="targetPoint" />
          </mxGeometry>
        </mxCell>
        <mxCell id="QEqoIqBwXi3VeUuBfhwj-26" value="" style="edgeStyle=entityRelationEdgeStyle;fontSize=12;html=1;endArrow=ERmandOne;startArrow=ERmandOne;rounded=0;exitX=1;exitY=0.5;exitDx=0;exitDy=0;" edge="1" parent="1" source="QEqoIqBwXi3VeUuBfhwj-2" target="eNqNxu4gamPWBtJRf4EA-71">
          <mxGeometry width="100" height="100" relative="1" as="geometry">
            <mxPoint x="400" y="340" as="sourcePoint" />
            <mxPoint x="500" y="240" as="targetPoint" />
          </mxGeometry>
        </mxCell>
        <mxCell id="QEqoIqBwXi3VeUuBfhwj-27" value="" style="edgeStyle=entityRelationEdgeStyle;fontSize=12;html=1;endArrow=ERmandOne;startArrow=ERmandOne;rounded=0;exitX=1;exitY=0.5;exitDx=0;exitDy=0;" edge="1" parent="1" target="eNqNxu4gamPWBtJRf4EA-71">
          <mxGeometry width="100" height="100" relative="1" as="geometry">
            <mxPoint x="170" y="490" as="sourcePoint" />
            <mxPoint x="300" y="700" as="targetPoint" />
          </mxGeometry>
        </mxCell>
        <mxCell id="QEqoIqBwXi3VeUuBfhwj-28" value="" style="edgeStyle=entityRelationEdgeStyle;fontSize=12;html=1;endArrow=ERmandOne;startArrow=ERmandOne;rounded=0;exitX=1;exitY=0.5;exitDx=0;exitDy=0;" edge="1" parent="1" source="eNqNxu4gamPWBtJRf4EA-71" target="QEqoIqBwXi3VeUuBfhwj-5">
          <mxGeometry width="100" height="100" relative="1" as="geometry">
            <mxPoint x="660" y="430" as="sourcePoint" />
            <mxPoint x="760" y="330" as="targetPoint" />
          </mxGeometry>
        </mxCell>
        <mxCell id="QEqoIqBwXi3VeUuBfhwj-29" value="" style="edgeStyle=entityRelationEdgeStyle;fontSize=12;html=1;endArrow=ERmandOne;startArrow=ERmandOne;rounded=0;exitX=1;exitY=0.5;exitDx=0;exitDy=0;entryX=0;entryY=0.5;entryDx=0;entryDy=0;" edge="1" parent="1" source="eNqNxu4gamPWBtJRf4EA-71" target="QEqoIqBwXi3VeUuBfhwj-6">
          <mxGeometry width="100" height="100" relative="1" as="geometry">
            <mxPoint x="660" y="430" as="sourcePoint" />
            <mxPoint x="760" y="330" as="targetPoint" />
          </mxGeometry>
        </mxCell>
      </root>
    </mxGraphModel>
  </diagram>
  <diagram id="gyCGwK56Sx6Z6XF23NuE" name="Player">
    <mxGraphModel dx="777" dy="620" grid="1" gridSize="10" guides="1" tooltips="1" connect="1" arrows="1" fold="1" page="1" pageScale="1" pageWidth="827" pageHeight="1169" math="0" shadow="0">
      <root>
        <mxCell id="0" />
        <mxCell id="1" parent="0" />
        <mxCell id="X8gUV7A-wRcKFV5ql-_j-22" value="Player" style="rounded=1;arcSize=10;whiteSpace=wrap;html=1;align=center;fillColor=#ffe6cc;strokeColor=#d79b00;" vertex="1" parent="1">
          <mxGeometry x="280" y="590" width="230" height="140" as="geometry" />
        </mxCell>
        <mxCell id="8aKeHjTnrj3qNKMZjgIW-3" value="Mean of goals last season" style="rounded=1;arcSize=10;whiteSpace=wrap;html=1;align=center;fillColor=#dae8fc;strokeColor=#6c8ebf;" vertex="1" parent="1">
          <mxGeometry x="40" y="430" width="135" height="60" as="geometry" />
        </mxCell>
        <mxCell id="8aKeHjTnrj3qNKMZjgIW-4" value="Mean of asists last season" style="rounded=1;arcSize=10;whiteSpace=wrap;html=1;align=center;fillColor=#dae8fc;strokeColor=#6c8ebf;" vertex="1" parent="1">
          <mxGeometry x="40" y="580" width="135" height="60" as="geometry" />
        </mxCell>
        <mxCell id="8aKeHjTnrj3qNKMZjgIW-5" value="Name" style="rounded=1;arcSize=10;whiteSpace=wrap;html=1;align=center;fillColor=#dae8fc;strokeColor=#6c8ebf;" vertex="1" parent="1">
          <mxGeometry x="250" y="420" width="135" height="60" as="geometry" />
        </mxCell>
        <mxCell id="8aKeHjTnrj3qNKMZjgIW-6" value="ID" style="rounded=1;arcSize=10;whiteSpace=wrap;html=1;align=center;fillColor=#dae8fc;strokeColor=#6c8ebf;" vertex="1" parent="1">
          <mxGeometry x="414" y="420" width="135" height="60" as="geometry" />
        </mxCell>
        <mxCell id="8aKeHjTnrj3qNKMZjgIW-7" value="Mean of minutes per match" style="rounded=1;arcSize=10;whiteSpace=wrap;html=1;align=center;fillColor=#dae8fc;strokeColor=#6c8ebf;" vertex="1" parent="1">
          <mxGeometry x="40" y="730" width="135" height="60" as="geometry" />
        </mxCell>
        <mxCell id="8aKeHjTnrj3qNKMZjgIW-8" value="Dorsal" style="rounded=1;arcSize=10;whiteSpace=wrap;html=1;align=center;fillColor=#dae8fc;strokeColor=#6c8ebf;" vertex="1" parent="1">
          <mxGeometry x="40" y="880" width="135" height="60" as="geometry" />
        </mxCell>
        <mxCell id="8aKeHjTnrj3qNKMZjgIW-9" value="Age" style="rounded=1;arcSize=10;whiteSpace=wrap;html=1;align=center;fillColor=#dae8fc;strokeColor=#6c8ebf;" vertex="1" parent="1">
          <mxGeometry x="610" y="430" width="135" height="60" as="geometry" />
        </mxCell>
        <mxCell id="8aKeHjTnrj3qNKMZjgIW-10" value="% Pass acurrate" style="rounded=1;arcSize=10;whiteSpace=wrap;html=1;align=center;fillColor=#dae8fc;strokeColor=#6c8ebf;" vertex="1" parent="1">
          <mxGeometry x="610" y="580" width="135" height="60" as="geometry" />
        </mxCell>
        <mxCell id="8aKeHjTnrj3qNKMZjgIW-11" value="Club" style="rounded=1;arcSize=10;whiteSpace=wrap;html=1;align=center;fillColor=#dae8fc;strokeColor=#6c8ebf;" vertex="1" parent="1">
          <mxGeometry x="414" y="880" width="135" height="60" as="geometry" />
        </mxCell>
        <mxCell id="8aKeHjTnrj3qNKMZjgIW-12" value="Selection" style="rounded=1;arcSize=10;whiteSpace=wrap;html=1;align=center;fillColor=#dae8fc;strokeColor=#6c8ebf;" vertex="1" parent="1">
          <mxGeometry x="250" y="880" width="135" height="60" as="geometry" />
        </mxCell>
        <mxCell id="8aKeHjTnrj3qNKMZjgIW-13" value="Is titular" style="rounded=1;arcSize=10;whiteSpace=wrap;html=1;align=center;fillColor=#dae8fc;strokeColor=#6c8ebf;" vertex="1" parent="1">
          <mxGeometry x="610" y="730" width="135" height="60" as="geometry" />
        </mxCell>
        <mxCell id="8aKeHjTnrj3qNKMZjgIW-14" value="Position" style="rounded=1;arcSize=10;whiteSpace=wrap;html=1;align=center;fillColor=#dae8fc;strokeColor=#6c8ebf;" vertex="1" parent="1">
          <mxGeometry x="610" y="880" width="135" height="60" as="geometry" />
        </mxCell>
        <mxCell id="8aKeHjTnrj3qNKMZjgIW-15" value="Belongs" style="shape=rhombus;perimeter=rhombusPerimeter;whiteSpace=wrap;html=1;align=center;fillColor=#d5e8d4;strokeColor=#82b366;" vertex="1" parent="1">
          <mxGeometry x="250" y="760" width="120" height="60" as="geometry" />
        </mxCell>
        <mxCell id="8aKeHjTnrj3qNKMZjgIW-16" value="" style="edgeStyle=entityRelationEdgeStyle;fontSize=12;html=1;endArrow=ERmandOne;rounded=0;entryX=0.5;entryY=0;entryDx=0;entryDy=0;exitX=0.5;exitY=1;exitDx=0;exitDy=0;" edge="1" parent="1" source="8aKeHjTnrj3qNKMZjgIW-15" target="8aKeHjTnrj3qNKMZjgIW-12">
          <mxGeometry width="100" height="100" relative="1" as="geometry">
            <mxPoint x="320" y="740" as="sourcePoint" />
            <mxPoint x="420" y="640" as="targetPoint" />
          </mxGeometry>
        </mxCell>
        <mxCell id="8aKeHjTnrj3qNKMZjgIW-17" value="" style="edgeStyle=entityRelationEdgeStyle;fontSize=12;html=1;endArrow=ERmandOne;rounded=0;entryX=0.5;entryY=0;entryDx=0;entryDy=0;exitX=0.5;exitY=1;exitDx=0;exitDy=0;" edge="1" parent="1" source="8aKeHjTnrj3qNKMZjgIW-20">
          <mxGeometry width="100" height="100" relative="1" as="geometry">
            <mxPoint x="460" y="780" as="sourcePoint" />
            <mxPoint x="485" y="880" as="targetPoint" />
          </mxGeometry>
        </mxCell>
        <mxCell id="8aKeHjTnrj3qNKMZjgIW-18" value="" style="edgeStyle=entityRelationEdgeStyle;fontSize=12;html=1;endArrow=ERmandOne;rounded=0;entryX=0.5;entryY=0;entryDx=0;entryDy=0;exitX=0.25;exitY=1;exitDx=0;exitDy=0;" edge="1" parent="1" source="X8gUV7A-wRcKFV5ql-_j-22" target="8aKeHjTnrj3qNKMZjgIW-15">
          <mxGeometry width="100" height="100" relative="1" as="geometry">
            <mxPoint x="400" y="730" as="sourcePoint" />
            <mxPoint x="430" y="810" as="targetPoint" />
          </mxGeometry>
        </mxCell>
        <mxCell id="8aKeHjTnrj3qNKMZjgIW-20" value="Belongs" style="shape=rhombus;perimeter=rhombusPerimeter;whiteSpace=wrap;html=1;align=center;fillColor=#d5e8d4;strokeColor=#82b366;" vertex="1" parent="1">
          <mxGeometry x="400" y="760" width="120" height="60" as="geometry" />
        </mxCell>
        <mxCell id="8aKeHjTnrj3qNKMZjgIW-21" value="" style="edgeStyle=entityRelationEdgeStyle;fontSize=12;html=1;endArrow=ERmandOne;rounded=0;entryX=0.5;entryY=0;entryDx=0;entryDy=0;exitX=0.25;exitY=1;exitDx=0;exitDy=0;" edge="1" parent="1" target="8aKeHjTnrj3qNKMZjgIW-20">
          <mxGeometry width="100" height="100" relative="1" as="geometry">
            <mxPoint x="447.5" y="730" as="sourcePoint" />
            <mxPoint x="420" y="760" as="targetPoint" />
          </mxGeometry>
        </mxCell>
        <mxCell id="8aKeHjTnrj3qNKMZjgIW-22" value="" style="edgeStyle=entityRelationEdgeStyle;fontSize=12;html=1;endArrow=ERmandOne;startArrow=ERmandOne;rounded=0;exitX=1;exitY=0.5;exitDx=0;exitDy=0;entryX=0;entryY=0.75;entryDx=0;entryDy=0;" edge="1" parent="1" source="8aKeHjTnrj3qNKMZjgIW-8" target="X8gUV7A-wRcKFV5ql-_j-22">
          <mxGeometry width="100" height="100" relative="1" as="geometry">
            <mxPoint x="320" y="740" as="sourcePoint" />
            <mxPoint x="420" y="640" as="targetPoint" />
          </mxGeometry>
        </mxCell>
        <mxCell id="8aKeHjTnrj3qNKMZjgIW-24" value="" style="edgeStyle=entityRelationEdgeStyle;fontSize=12;html=1;endArrow=ERoneToMany;startArrow=ERmandOne;rounded=0;exitX=1;exitY=0.5;exitDx=0;exitDy=0;entryX=0;entryY=0.25;entryDx=0;entryDy=0;" edge="1" parent="1" source="8aKeHjTnrj3qNKMZjgIW-4" target="X8gUV7A-wRcKFV5ql-_j-22">
          <mxGeometry width="100" height="100" relative="1" as="geometry">
            <mxPoint x="320" y="740" as="sourcePoint" />
            <mxPoint x="420" y="640" as="targetPoint" />
          </mxGeometry>
        </mxCell>
        <mxCell id="8aKeHjTnrj3qNKMZjgIW-25" value="" style="edgeStyle=entityRelationEdgeStyle;fontSize=12;html=1;endArrow=ERoneToMany;startArrow=ERmandOne;rounded=0;exitX=1;exitY=0.5;exitDx=0;exitDy=0;" edge="1" parent="1" source="8aKeHjTnrj3qNKMZjgIW-7">
          <mxGeometry width="100" height="100" relative="1" as="geometry">
            <mxPoint x="185" y="620" as="sourcePoint" />
            <mxPoint x="280" y="660" as="targetPoint" />
          </mxGeometry>
        </mxCell>
        <mxCell id="8aKeHjTnrj3qNKMZjgIW-26" value="" style="edgeStyle=entityRelationEdgeStyle;fontSize=12;html=1;endArrow=ERoneToMany;startArrow=ERmandOne;rounded=0;entryX=0.168;entryY=-0.001;entryDx=0;entryDy=0;exitX=1;exitY=0.5;exitDx=0;exitDy=0;entryPerimeter=0;" edge="1" parent="1" source="8aKeHjTnrj3qNKMZjgIW-3" target="X8gUV7A-wRcKFV5ql-_j-22">
          <mxGeometry width="100" height="100" relative="1" as="geometry">
            <mxPoint x="180" y="460" as="sourcePoint" />
            <mxPoint x="275" y="360" as="targetPoint" />
          </mxGeometry>
        </mxCell>
        <mxCell id="8aKeHjTnrj3qNKMZjgIW-27" value="" style="edgeStyle=entityRelationEdgeStyle;fontSize=12;html=1;endArrow=ERoneToMany;startArrow=ERmandOne;rounded=0;entryX=0.428;entryY=-0.005;entryDx=0;entryDy=0;exitX=0.5;exitY=1;exitDx=0;exitDy=0;entryPerimeter=0;" edge="1" parent="1" source="8aKeHjTnrj3qNKMZjgIW-5" target="X8gUV7A-wRcKFV5ql-_j-22">
          <mxGeometry width="100" height="100" relative="1" as="geometry">
            <mxPoint x="185" y="470" as="sourcePoint" />
            <mxPoint x="347.5" y="600" as="targetPoint" />
          </mxGeometry>
        </mxCell>
        <mxCell id="8aKeHjTnrj3qNKMZjgIW-28" value="" style="edgeStyle=entityRelationEdgeStyle;fontSize=12;html=1;endArrow=ERmandOne;startArrow=ERmandOne;rounded=0;entryX=0.5;entryY=1;entryDx=0;entryDy=0;" edge="1" parent="1" target="8aKeHjTnrj3qNKMZjgIW-6">
          <mxGeometry width="100" height="100" relative="1" as="geometry">
            <mxPoint x="420" y="590" as="sourcePoint" />
            <mxPoint x="420" y="520" as="targetPoint" />
          </mxGeometry>
        </mxCell>
        <mxCell id="8aKeHjTnrj3qNKMZjgIW-29" value="" style="edgeStyle=entityRelationEdgeStyle;fontSize=12;html=1;endArrow=ERoneToMany;startArrow=ERmandOne;rounded=0;exitX=0;exitY=0.5;exitDx=0;exitDy=0;" edge="1" parent="1" source="8aKeHjTnrj3qNKMZjgIW-9">
          <mxGeometry width="100" height="100" relative="1" as="geometry">
            <mxPoint x="185" y="470" as="sourcePoint" />
            <mxPoint x="490" y="591" as="targetPoint" />
          </mxGeometry>
        </mxCell>
        <mxCell id="8aKeHjTnrj3qNKMZjgIW-30" value="" style="edgeStyle=entityRelationEdgeStyle;fontSize=12;html=1;endArrow=ERoneToMany;startArrow=ERmandOne;rounded=0;exitX=0;exitY=0.5;exitDx=0;exitDy=0;entryX=1;entryY=0.25;entryDx=0;entryDy=0;" edge="1" parent="1" source="8aKeHjTnrj3qNKMZjgIW-10" target="X8gUV7A-wRcKFV5ql-_j-22">
          <mxGeometry width="100" height="100" relative="1" as="geometry">
            <mxPoint x="185" y="620" as="sourcePoint" />
            <mxPoint x="290" y="635" as="targetPoint" />
          </mxGeometry>
        </mxCell>
        <mxCell id="8aKeHjTnrj3qNKMZjgIW-31" value="" style="edgeStyle=entityRelationEdgeStyle;fontSize=12;html=1;endArrow=ERoneToMany;startArrow=ERmandOne;rounded=0;exitX=0;exitY=0.5;exitDx=0;exitDy=0;entryX=1;entryY=0.5;entryDx=0;entryDy=0;" edge="1" parent="1" source="8aKeHjTnrj3qNKMZjgIW-13" target="X8gUV7A-wRcKFV5ql-_j-22">
          <mxGeometry width="100" height="100" relative="1" as="geometry">
            <mxPoint x="620" y="620" as="sourcePoint" />
            <mxPoint x="520" y="635" as="targetPoint" />
          </mxGeometry>
        </mxCell>
        <mxCell id="8aKeHjTnrj3qNKMZjgIW-33" value="" style="edgeStyle=entityRelationEdgeStyle;fontSize=12;html=1;endArrow=ERoneToMany;startArrow=ERmandOne;rounded=0;exitX=0;exitY=0.5;exitDx=0;exitDy=0;entryX=0.987;entryY=0.802;entryDx=0;entryDy=0;entryPerimeter=0;" edge="1" parent="1" source="8aKeHjTnrj3qNKMZjgIW-14" target="X8gUV7A-wRcKFV5ql-_j-22">
          <mxGeometry width="100" height="100" relative="1" as="geometry">
            <mxPoint x="320" y="750" as="sourcePoint" />
            <mxPoint x="520" y="700" as="targetPoint" />
          </mxGeometry>
        </mxCell>
      </root>
    </mxGraphModel>
  </diagram>
  <diagram id="_gZNth94oadYN1rV2fpD" name="Group">
    <mxGraphModel dx="893" dy="713" grid="1" gridSize="10" guides="1" tooltips="1" connect="1" arrows="1" fold="1" page="1" pageScale="1" pageWidth="827" pageHeight="1169" math="0" shadow="0">
      <root>
        <mxCell id="0" />
        <mxCell id="1" parent="0" />
        <mxCell id="apx2LDvdMvpjjPIIii2T-2" value="Group" style="shape=ext;margin=3;double=1;whiteSpace=wrap;html=1;align=center;fillColor=#ffe6cc;strokeColor=#d79b00;" vertex="1" parent="1">
          <mxGeometry x="290" y="420" width="231" height="130" as="geometry" />
        </mxCell>
        <mxCell id="apx2LDvdMvpjjPIIii2T-3" value="Selections" style="shape=ext;margin=3;double=1;whiteSpace=wrap;html=1;align=center;fillColor=#dae8fc;strokeColor=#6c8ebf;" vertex="1" parent="1">
          <mxGeometry x="149" y="200" width="170" height="80" as="geometry" />
        </mxCell>
        <mxCell id="apx2LDvdMvpjjPIIii2T-4" value="Players" style="shape=ext;margin=3;double=1;whiteSpace=wrap;html=1;align=center;fillColor=#dae8fc;strokeColor=#6c8ebf;" vertex="1" parent="1">
          <mxGeometry x="509" y="200" width="170" height="80" as="geometry" />
        </mxCell>
        <mxCell id="apx2LDvdMvpjjPIIii2T-5" value="" style="edgeStyle=entityRelationEdgeStyle;fontSize=12;html=1;endArrow=ERoneToMany;startArrow=ERmandOne;rounded=0;exitX=0.293;exitY=0.008;exitDx=0;exitDy=0;exitPerimeter=0;" edge="1" parent="1" source="apx2LDvdMvpjjPIIii2T-2" target="apx2LDvdMvpjjPIIii2T-3">
          <mxGeometry width="100" height="100" relative="1" as="geometry">
            <mxPoint x="360" y="420" as="sourcePoint" />
            <mxPoint x="460" y="320" as="targetPoint" />
          </mxGeometry>
        </mxCell>
        <mxCell id="apx2LDvdMvpjjPIIii2T-6" value="" style="edgeStyle=entityRelationEdgeStyle;fontSize=12;html=1;endArrow=ERoneToMany;startArrow=ERmandOne;rounded=0;entryX=0;entryY=0.5;entryDx=0;entryDy=0;" edge="1" parent="1" target="apx2LDvdMvpjjPIIii2T-4">
          <mxGeometry width="100" height="100" relative="1" as="geometry">
            <mxPoint x="440" y="420" as="sourcePoint" />
            <mxPoint x="329" y="250" as="targetPoint" />
          </mxGeometry>
        </mxCell>
      </root>
    </mxGraphModel>
  </diagram>
</mxfile>
